# xmcd
#
# Track frame offsets:
#	150
#	15522
#	27385
#	41330
#	50642
#	64286
#	79674
#	91524
#	105221
#	120383
#	138870
#	149960
#	164636
#	178428
#	198048
#	212972
#	228218
#	243450
#	259687
#	272464
#	287783
#	300750
#
# Disc length: 4351 seconds
#
# Revision: 1
# Processed by: cddbd v1.5.2PL0 Copyright (c) Steve Scherf et al.
# Submitted via: audiograbber 1.83.01
#
DISCID=2d10fd16
DTITLE=The Delfonics - THE DELFONICS - La La Means I Love You
DYEAR=1900
DGENRE=Soul
TTITLE0=La la means I love you
TTITLE1=You're gone
TTITLE2=Break your promise
TTITLE3=Ready or not here I come
TTITLE4=Can you remember
TTITLE5=Didn't I (Blow your mind this time)
TTITLE6=You've been untrue
TTITLE7=Baby I love you
TTITLE8=You got yours and I'll get mine
TTITLE9=Lying to myself
TTITLE10=He really don't love you
TTITLE11=I told you so
TTITLE12=Trying to make a fool of me
TTITLE13=Delfonics theme
TTITLE14=I don't want to make you wait
TTITLE15=Hey love
TTITLE16=Baby I miss you
TTITLE17=Tell me this is a dream
TTITLE18=I'm sorry
TTITLE19=Somebody loves you
TTITLE20=When you get right down to it
TTITLE21=I gave to you
EXTD=
EXTT0=
EXTT1=
EXTT2=
EXTT3=
EXTT4=
EXTT5=
EXTT6=
EXTT7=
EXTT8=
EXTT9=
EXTT10=
EXTT11=
EXTT12=
EXTT13=
EXTT14=
EXTT15=
EXTT16=
EXTT17=
EXTT18=
EXTT19=
EXTT20=
EXTT21=
PLAYORDER=
